<svg xmlns="http://www.w3.org/2000/svg" version="1.1" xmlns:xlink="http://www.w3.org/1999/xlink" xmlns:svgjs="http://svgjs.dev/svgjs" width="1000" height="1125" viewBox="0 0 1000 1125"><g transform="matrix(1,0,0,1,0.0006562499999631655,0)"><svg viewBox="0 0 320 360" data-background-color="#3b72d2" preserveAspectRatio="xMidYMid meet" height="1125" width="1000" xmlns="http://www.w3.org/2000/svg" xmlns:xlink="http://www.w3.org/1999/xlink"><g id="tight-bounds" transform="matrix(1,0,0,1,-0.00020999999998139174,0)"><svg viewBox="0 0 320 360" height="360" width="320"><g><svg></svg></g><g><svg viewBox="0 0 320 360" height="360" width="320"><g><path transform="translate(-17.77778,2.22222) scale(3.55556,3.55556)" d="M95 52c0-12.871-5.692-24.431-14.682-32.318-7.887-8.99-19.447-14.682-32.318-14.682-23.71 0-43 19.29-43 43 0 12.868 5.69 24.426 14.677 32.313 7.887 8.993 19.449 14.687 32.323 14.687 0.084 0 0.166-0.006 0.25-0.006 0.084 0 0.166 0.006 0.25 0.006 23.472 0 42.5-19.028 42.5-42.5 0-0.084-0.006-0.166-0.006-0.25 0-0.084 0.006-0.166 0.006-0.25zM21.828 73.371c-4.245-5.978-6.77-13.259-6.822-21.121 0.135-20.511 16.732-37.109 37.244-37.244 7.862 0.052 15.144 2.577 21.121 6.822 6.853 6.645 11.129 15.93 11.129 26.172 0 20.126-16.374 36.5-36.5 36.5-10.242 0-19.527-4.276-26.172-11.129zM6 48c0-23.159 18.841-42 42-42 9.858 0 18.926 3.422 26.1 9.13-6.463-3.888-14.024-6.13-22.1-6.13-23.71 0-43 19.29-43 43 0 8.074 2.241 15.633 6.127 22.095-5.706-7.172-9.127-16.239-9.127-26.095zM52 89c-10.08 0-19.227-4.055-25.905-10.615 6.174 4.469 13.743 7.115 21.905 7.115 20.678 0 37.5-16.822 37.5-37.5 0-8.162-2.646-15.731-7.115-21.905 6.56 6.678 10.615 15.825 10.615 25.905 0 20.402-16.598 37-37 37z" fill="#ffffff" fill-rule="nonzero" stroke="none" stroke-width="1" stroke-linecap="butt" stroke-linejoin="miter" stroke-miterlimit="10" stroke-dasharray="" stroke-dashoffset="0" font-family="none" font-weight="none" font-size="none" text-anchor="none" style="mix-blend-mode: normal" data-fill-palette-color="tertiary"></path></g><g transform="matrix(1,0,0,1,64,100.87590098517323)"><svg viewBox="0 0 192 158.24819802965354" height="158.24819802965354" width="192"><g><svg viewBox="0 0 192.95999999999998 159.0394390198018" height="158.24819802965354" width="192"><g><rect width="192.95999999999998" height="3.7315328375129804" x="0" y="95.54551247886721" fill="#ffffff" opacity="1" stroke-width="0" stroke="transparent" fill-opacity="1" class="rect-r$-0" data-fill-palette-color="primary" rx="1%" id="r$-0" data-palette-color="#ffffff"></rect></g><g><rect width="192.95999999999998" height="3.7315328375129804" x="0" y="104.16125060108305" fill="#ffffff" opacity="1" stroke-width="0" stroke="transparent" fill-opacity="1" class="rect-r$-1" data-fill-palette-color="primary" rx="1%" id="r$-1" data-palette-color="#ffffff"></rect></g><g transform="matrix(1,0,0,1,0.47999999999998977,117.66119400800174)"><svg viewBox="0 0 192 41.37824501180005" height="41.37824501180005" width="192"><g id="textblocktransform"><svg viewBox="0 0 192 41.37824501180005" height="41.37824501180005" width="192" id="textblock"><g><svg viewBox="0 0 192 41.37824501180005" height="41.37824501180005" width="192"><g transform="matrix(1,0,0,1,0,0)"><svg width="192" viewBox="3.25 -39.04 227.56 49.05" height="41.37824501180005" data-palette-color="#ffffff"><path d="M27.25-7.01L27.25 0 3.25 0 3.25-35.01 27.25-35.01 27.25-28 10.25-28 10.25-21 21.75-21 21.75-13.99 10.25-13.99 10.25-7.01 27.25-7.01ZM39.67-19.51L39.67 0 33.01 0 33.01-19.51 29.76-19.51 29.76-26.15 33.01-26.15 33.01-27.39Q33.01-29.81 33.92-31.93 34.84-34.06 36.44-35.63 38.03-37.21 40.16-38.12 42.28-39.04 44.7-39.04L44.7-39.04 49.7-39.04 49.7-32.4 44.7-32.4Q43.63-32.4 42.71-32.02 41.79-31.64 41.12-30.97 40.45-30.3 40.06-29.38 39.67-28.47 39.67-27.39L39.67-27.39 39.67-26.15 47.85-26.15 47.85-19.51 39.67-19.51ZM59.47-19.51L59.47 0 52.8 0 52.8-19.51 49.56-19.51 49.56-26.15 52.8-26.15 52.8-27.39Q52.8-29.81 53.72-31.93 54.63-34.06 56.23-35.63 57.83-37.21 59.96-38.12 62.08-39.04 64.5-39.04L64.5-39.04 69.5-39.04 69.5-32.4 64.5-32.4Q63.42-32.4 62.51-32.02 61.59-31.64 60.92-30.97 60.25-30.3 59.86-29.38 59.47-28.47 59.47-27.39L59.47-27.39 59.47-26.15 67.65-26.15 67.65-19.51 59.47-19.51ZM79.61-33.25L79.61-33.25Q79.61-32.32 79.25-31.52 78.9-30.71 78.29-30.11 77.68-29.52 76.86-29.16 76.04-28.81 75.11-28.81L75.11-28.81Q74.19-28.81 73.37-29.16 72.55-29.52 71.95-30.11 71.35-30.71 71-31.52 70.65-32.32 70.65-33.25L70.65-33.25Q70.65-34.16 71-34.97 71.35-35.79 71.95-36.39 72.55-36.99 73.37-37.34 74.19-37.7 75.11-37.7L75.11-37.7Q76.04-37.7 76.86-37.34 77.68-36.99 78.29-36.39 78.9-35.79 79.25-34.97 79.61-34.16 79.61-33.25ZM78.46-26.15L78.46 0 71.75 0 71.75-26.15 78.46-26.15ZM102.14-13.31L102.14-13.31Q102.14-14.67 101.61-15.95 101.09-17.24 100.19-18.23 99.28-19.21 98.07-19.81 96.87-20.41 95.5-20.41L95.5-20.41Q94.13-20.41 92.92-19.95 91.71-19.48 90.82-18.58 89.93-17.68 89.42-16.35 88.91-15.01 88.91-13.31L88.91-13.31Q88.91-11.67 89.42-10.36 89.93-9.06 90.82-8.13 91.71-7.2 92.92-6.7 94.13-6.2 95.5-6.2L95.5-6.2Q96.87-6.2 98.07-6.8 99.28-7.4 100.19-8.39 101.09-9.38 101.61-10.66 102.14-11.94 102.14-13.31ZM108.85-26.1L108.85-3.3Q108.85-0.54 107.8 1.88 106.75 4.3 104.93 6.1 103.12 7.91 100.69 8.96 98.26 10.01 95.5 10.01L95.5 10.01 92.15 9.96 92.15 3.3 95.45 3.34Q97.01 3.34 98.11 2.94 99.21 2.54 99.97 1.84 100.72 1.15 101.17 0.24 101.63-0.66 101.89-1.66L101.89-1.66Q101.5-1.03 100.77-0.62 100.04-0.22 99.15 0.04 98.26 0.29 97.29 0.39 96.33 0.49 95.5 0.49L95.5 0.49Q92.74 0.49 90.31-0.46 87.88-1.42 86.06-3.19 84.24-4.96 83.19-7.52 82.14-10.08 82.14-13.31L82.14-13.31Q82.14-16.26 83.19-18.8 84.24-21.34 86.06-23.19 87.88-25.05 90.31-26.1 92.74-27.15 95.5-27.15L95.5-27.15Q96.77-27.15 98.01-26.83 99.26-26.51 100.43-25.95 101.6-25.39 102.66-24.63 103.73-23.88 104.65-23L104.65-23 107.24-26.1 108.85-26.1ZM136.83-21.46L124.33-6.4Q124.72-6.27 125.11-6.24 125.5-6.2 125.89-6.2L125.89-6.2Q126.87-6.2 127.77-6.47 128.67-6.74 129.47-7.24 130.26-7.74 130.88-8.46 131.51-9.18 131.9-10.06L131.9-10.06 136.78-5.15Q135.85-3.83 134.64-2.78 133.43-1.73 132.03-1 130.63-0.27 129.08 0.11 127.53 0.49 125.89 0.49L125.89 0.49Q123.13 0.49 120.7-0.54 118.27-1.56 116.45-3.39 114.64-5.22 113.59-7.75 112.54-10.28 112.54-13.31L112.54-13.31Q112.54-16.41 113.59-18.97 114.64-21.53 116.45-23.34 118.27-25.15 120.7-26.15 123.13-27.15 125.89-27.15L125.89-27.15Q127.53-27.15 129.09-26.76 130.65-26.37 132.06-25.63 133.46-24.9 134.68-23.84 135.9-22.78 136.83-21.46L136.83-21.46ZM119.98-9.84L127.75-20.14Q127.28-20.31 126.83-20.36 126.38-20.41 125.89-20.41L125.89-20.41Q124.52-20.41 123.32-19.91 122.11-19.41 121.22-18.48 120.32-17.55 119.81-16.25 119.3-14.94 119.3-13.31L119.3-13.31Q119.3-12.94 119.34-12.48 119.37-12.01 119.46-11.54 119.54-11.06 119.67-10.62 119.79-10.18 119.98-9.84L119.98-9.84ZM146.84-14.94L146.84 0 140.17 0 140.17-26.15 141.78-26.15 143.98-23.61Q145.59-25.07 147.63-25.87 149.67-26.66 151.89-26.66L151.89-26.66Q154.28-26.66 156.41-25.74 158.53-24.83 160.12-23.23 161.7-21.63 162.62-19.49 163.53-17.36 163.53-14.94L163.53-14.94 163.53 0 156.87 0 156.87-14.94Q156.87-15.97 156.48-16.88 156.09-17.8 155.4-18.48 154.72-19.17 153.82-19.56 152.91-19.95 151.89-19.95L151.89-19.95Q150.84-19.95 149.91-19.56 148.98-19.17 148.3-18.48 147.62-17.8 147.23-16.88 146.84-15.97 146.84-14.94L146.84-14.94ZM176.13-33.25L176.13-33.25Q176.13-32.32 175.78-31.52 175.42-30.71 174.81-30.11 174.2-29.52 173.38-29.16 172.57-28.81 171.64-28.81L171.64-28.81Q170.71-28.81 169.89-29.16 169.07-29.52 168.48-30.11 167.88-30.71 167.52-31.52 167.17-32.32 167.17-33.25L167.17-33.25Q167.17-34.16 167.52-34.97 167.88-35.79 168.48-36.39 169.07-36.99 169.89-37.34 170.71-37.7 171.64-37.7L171.64-37.7Q172.57-37.7 173.38-37.34 174.2-36.99 174.81-36.39 175.42-35.79 175.78-34.97 176.13-34.16 176.13-33.25ZM174.98-26.15L174.98 0 168.27 0 168.27-26.15 174.98-26.15ZM201.47 0L199.27-3.05Q198.47-2.32 197.55-1.67 196.64-1.03 195.63-0.55 194.63-0.07 193.57 0.21 192.51 0.49 191.41 0.49L191.41 0.49Q188.99 0.49 186.87-0.37 184.75-1.22 183.15-2.8 181.55-4.37 180.63-6.63 179.72-8.89 179.72-11.69L179.72-11.69 179.72-26.15 186.36-26.15 186.36-11.69Q186.36-10.38 186.76-9.34 187.16-8.3 187.85-7.59 188.53-6.88 189.45-6.52 190.36-6.15 191.41-6.15L191.41-6.15Q192.44-6.15 193.35-6.63 194.27-7.1 194.95-7.89 195.63-8.67 196.02-9.66 196.42-10.64 196.42-11.69L196.42-11.69 196.42-26.15 203.08-26.15 203.08 0 201.47 0ZM222.51 0L222.51 0 207.28 0 207.28-6.64 222.51-6.64Q223.2-6.64 223.68-7.13 224.17-7.62 224.17-8.3L224.17-8.3Q224.17-9.01 223.68-9.23 223.2-9.45 222.51-9.45L222.51-9.45 215.58-9.45Q213.84-9.45 212.33-10.11 210.82-10.77 209.69-11.9 208.57-13.04 207.92-14.55 207.28-16.06 207.28-17.8L207.28-17.8Q207.28-19.53 207.92-21.04 208.57-22.56 209.69-23.68 210.82-24.8 212.33-25.45 213.84-26.1 215.58-26.1L215.58-26.1 229.08-26.1 229.08-19.46 215.58-19.46Q214.89-19.46 214.41-18.97 213.92-18.48 213.92-17.8L213.92-17.8Q213.92-17.09 214.41-16.59 214.89-16.09 215.58-16.09L215.58-16.09 222.51-16.09Q224.22-16.09 225.73-15.52 227.25-14.94 228.37-13.92 229.49-12.89 230.15-11.45 230.81-10.01 230.81-8.3L230.81-8.3Q230.81-6.57 230.15-5.07 229.49-3.56 228.37-2.43 227.25-1.29 225.73-0.65 224.22 0 222.51 0Z" opacity="1" transform="matrix(1,0,0,1,0,0)" fill="#ffffff" class="wordmark-text-0" data-fill-palette-color="primary" id="text-0"></path></svg></g></svg></g></svg></g></svg></g><g transform="matrix(1,0,0,1,53.594611058653214,0)"><svg viewBox="0 0 85.77077788269355 85.7771019094615" height="85.7771019094615" width="85.77077788269355"><g><svg xmlns="http://www.w3.org/2000/svg" xmlns:xlink="http://www.w3.org/1999/xlink" version="1.1" viewBox="3 2.9973641454214888 90 90.00663585457852" x="0" y="0" height="85.7771019094615" width="85.77077788269355" class="icon-icon-0" data-fill-palette-color="accent" id="icon-0"><path d="M25 29.004h-20c-1.104 0-2-0.9-2-2v-20c0-1.104 0.896-2 2-2h20c1.104 0 2 0.896 2 2v20c0 1.1-0.896 2-2 2zM7 25.004h16v-16h-16v16z" fill="#ffffff" data-fill-palette-color="accent"></path><path d="M15 23.004c-0.148 0-0.3-0.016-0.444-0.056-0.588-0.132-1.084-0.528-1.352-1.068l-3.832-7.832c-0.484-0.992-0.076-2.188 0.916-2.676 0.996-0.488 2.188-0.072 2.676 0.916l2.744 5.608 18.392-14.472c0.868-0.68 2.128-0.532 2.808 0.336 0.68 0.872 0.532 2.124-0.336 2.808l-20.336 16c-0.356 0.288-0.792 0.436-1.236 0.436z" fill="#ffffff" data-fill-palette-color="accent"></path><path d="M25 61.004h-20c-1.104 0-2-0.9-2-2v-20c0-1.104 0.896-2 2-2h20c1.104 0 2 0.896 2 2v20c0 1.1-0.896 2-2 2zM7 57.004h16v-16h-16v16z" fill="#ffffff" data-fill-palette-color="accent"></path><path d="M15 55.004c-0.148 0-0.3-0.016-0.444-0.056-0.588-0.132-1.084-0.528-1.352-1.072l-3.832-7.832c-0.484-0.992-0.076-2.188 0.916-2.676 0.996-0.488 2.188-0.076 2.676 0.916l2.744 5.608 18.392-14.472c0.868-0.68 2.128-0.528 2.808 0.336 0.68 0.872 0.532 2.124-0.336 2.808l-20.336 16c-0.356 0.292-0.792 0.44-1.236 0.44z" fill="#ffffff" data-fill-palette-color="accent"></path><path d="M25 93.004h-20c-1.104 0-2-0.9-2-2v-20c0-1.104 0.896-2 2-2h20c1.104 0 2 0.896 2 2v20c0 1.1-0.896 2-2 2zM7 89.004h16v-16h-16v16z" fill="#ffffff" data-fill-palette-color="accent"></path><path d="M91 77.004h-44c-1.104 0-2-0.9-2-2 0-1.104 0.896-2 2-2h44c1.1 0 2 0.896 2 2 0 1.1-0.9 2-2 2z" fill="#ffffff" data-fill-palette-color="accent"></path><path d="M91 89.004h-44c-1.104 0-2-0.9-2-2 0-1.104 0.896-2 2-2h44c1.1 0 2 0.896 2 2 0 1.1-0.9 2-2 2z" fill="#ffffff" data-fill-palette-color="accent"></path><path d="M91 45.004h-44c-1.104 0-2-0.9-2-2 0-1.104 0.896-2 2-2h44c1.1 0 2 0.896 2 2 0 1.1-0.9 2-2 2z" fill="#ffffff" data-fill-palette-color="accent"></path><path d="M91 57.004h-44c-1.104 0-2-0.9-2-2 0-1.104 0.896-2 2-2h44c1.1 0 2 0.896 2 2 0 1.1-0.9 2-2 2z" fill="#ffffff" data-fill-palette-color="accent"></path><path d="M91 13.004h-44c-1.104 0-2-0.9-2-2 0-1.104 0.896-2 2-2h44c1.1 0 2 0.896 2 2 0 1.1-0.9 2-2 2z" fill="#ffffff" data-fill-palette-color="accent"></path><path d="M91 25.004h-44c-1.104 0-2-0.9-2-2 0-1.104 0.896-2 2-2h44c1.1 0 2 0.896 2 2 0 1.1-0.9 2-2 2z" fill="#ffffff" data-fill-palette-color="accent"></path></svg></g></svg></g><g></g></svg></g></svg></g></svg></g><defs></defs></svg><rect width="320" height="360" fill="none" stroke="none" visibility="hidden"></rect></g></svg></g></svg>