<svg xmlns="http://www.w3.org/2000/svg" version="1.1" xmlns:xlink="http://www.w3.org/1999/xlink" xmlns:svgjs="http://svgjs.dev/svgjs" width="1000" height="1000" viewBox="0 0 1000 1000"><rect width="1000" height="1000" fill="#000000"></rect><g transform="matrix(0.7,0,0,0.7,150.000459375,106.25)"><svg viewBox="0 0 320 360" data-background-color="#3b72d2" preserveAspectRatio="xMidYMid meet" height="1125" width="1000" xmlns="http://www.w3.org/2000/svg" xmlns:xlink="http://www.w3.org/1999/xlink"><g id="tight-bounds" transform="matrix(1,0,0,1,-0.00020999999998139174,0)"><svg viewBox="0 0 320 360" height="360" width="320"><g><svg></svg></g><g><svg viewBox="0 0 320 360" height="360" width="320"><g><path transform="translate(-17.77778,2.22222) scale(3.55556,3.55556)" d="M95 52c0-12.871-5.692-24.431-14.682-32.318-7.887-8.99-19.447-14.682-32.318-14.682-23.71 0-43 19.29-43 43 0 12.868 5.69 24.426 14.677 32.313 7.887 8.993 19.449 14.687 32.323 14.687 0.084 0 0.166-0.006 0.25-0.006 0.084 0 0.166 0.006 0.25 0.006 23.472 0 42.5-19.028 42.5-42.5 0-0.084-0.006-0.166-0.006-0.25 0-0.084 0.006-0.166 0.006-0.25zM21.828 73.371c-4.245-5.978-6.77-13.259-6.822-21.121 0.135-20.511 16.732-37.109 37.244-37.244 7.862 0.052 15.144 2.577 21.121 6.822 6.853 6.645 11.129 15.93 11.129 26.172 0 20.126-16.374 36.5-36.5 36.5-10.242 0-19.527-4.276-26.172-11.129zM6 48c0-23.159 18.841-42 42-42 9.858 0 18.926 3.422 26.1 9.13-6.463-3.888-14.024-6.13-22.1-6.13-23.71 0-43 19.29-43 43 0 8.074 2.241 15.633 6.127 22.095-5.706-7.172-9.127-16.239-9.127-26.095zM52 89c-10.08 0-19.227-4.055-25.905-10.615 6.174 4.469 13.743 7.115 21.905 7.115 20.678 0 37.5-16.822 37.5-37.5 0-8.162-2.646-15.731-7.115-21.905 6.56 6.678 10.615 15.825 10.615 25.905 0 20.402-16.598 37-37 37z" fill="#ffffff" fill-rule="nonzero" stroke="none" stroke-width="1" stroke-linecap="butt" stroke-linejoin="miter" stroke-miterlimit="10" stroke-dasharray="" stroke-dashoffset="0" font-family="none" font-weight="none" font-size="none" text-anchor="none" style="mix-blend-mode: normal" data-fill-palette-color="tertiary"></path></g><g transform="matrix(1,0,0,1,74.5612442539477,99)"><svg viewBox="0 0 170.8775114921046 162" height="162" width="170.8775114921046"><g><svg viewBox="0 0 192.95999999999998 182.9352483369021" height="162" width="170.8775114921046"><g><rect width="192.95999999999998" height="3.6381299081712593" x="0" y="121.03062007969481" fill="#ffffff" opacity="1" stroke-width="0" stroke="transparent" fill-opacity="1" class="rect-r$-0" data-fill-palette-color="primary" rx="1%" id="r$-0" data-palette-color="#ffffff"></rect></g><g><rect width="192.95999999999998" height="3.6381299081712593" x="0" y="129.4307001294515" fill="#ffffff" opacity="1" stroke-width="0" stroke="transparent" fill-opacity="1" class="rect-r$-1" data-fill-palette-color="primary" rx="1%" id="r$-1" data-palette-color="#ffffff"></rect></g><g transform="matrix(1,0,0,1,0.47999999999998977,142.5927303207936)"><svg viewBox="0 0 192 40.34251801610852" height="40.34251801610852" width="192"><g id="textblocktransform"><svg viewBox="0 0 192 40.34251801610852" height="40.34251801610852" width="192" id="textblock"><g><svg viewBox="0 0 192 40.34251801610852" height="40.34251801610852" width="192"><g transform="matrix(1,0,0,1,0,0)"><svg width="192" viewBox="4.35 -36.83 178.06 37.18" height="40.34251801610852" data-palette-color="#ffffff"><path d="M4.35-35.83L26.43-35.83 26.43-31.88 9.22-31.88 9.22-19.98 23.15-19.98 23.15-16.18 9.22-16.18 9.22-3.95 26.43-3.95 26.43 0 4.35 0 4.35-35.83ZM38.17 0L33.7 0 33.7-21.53 30.9-21.85Q30.37-21.98 30.04-22.24 29.7-22.5 29.7-23L29.7-23 29.7-24.83 33.7-24.83 33.7-27.28Q33.7-29.45 34.31-31.14 34.92-32.83 36.06-33.99 37.2-35.15 38.8-35.75 40.4-36.35 42.4-36.35L42.4-36.35Q44.1-36.35 45.55-35.85L45.55-35.85 45.45-33.63Q45.42-33.13 45.02-33.02 44.62-32.93 43.9-32.93L43.9-32.93 43.12-32.93Q41.97-32.93 41.03-32.63 40.1-32.33 39.42-31.65 38.75-30.98 38.38-29.88 38.02-28.78 38.02-27.15L38.02-27.15 38.02-24.83 45.35-24.83 45.35-21.6 38.17-21.6 38.17 0ZM55.02 0L50.55 0 50.55-21.53 47.75-21.85Q47.22-21.98 46.88-22.24 46.55-22.5 46.55-23L46.55-23 46.55-24.83 50.55-24.83 50.55-27.28Q50.55-29.45 51.16-31.14 51.77-32.83 52.91-33.99 54.05-35.15 55.65-35.75 57.25-36.35 59.25-36.35L59.25-36.35Q60.95-36.35 62.4-35.85L62.4-35.85 62.3-33.63Q62.27-33.13 61.87-33.02 61.47-32.93 60.75-32.93L60.75-32.93 59.97-32.93Q58.82-32.93 57.88-32.63 56.95-32.33 56.27-31.65 55.6-30.98 55.23-29.88 54.87-28.78 54.87-27.15L54.87-27.15 54.87-24.83 62.2-24.83 62.2-21.6 55.02-21.6 55.02 0ZM66.89-25.33L71.34-25.33 71.34 0 66.89 0 66.89-25.33ZM72.34-33.27L72.34-33.27Q72.34-32.63 72.08-32.06 71.82-31.5 71.38-31.06 70.94-30.63 70.37-30.38 69.79-30.13 69.14-30.13L69.14-30.13Q68.49-30.13 67.93-30.38 67.37-30.63 66.93-31.06 66.49-31.5 66.24-32.06 65.99-32.63 65.99-33.27L65.99-33.27Q65.99-33.93 66.24-34.51 66.49-35.1 66.93-35.54 67.37-35.98 67.93-36.23 68.49-36.48 69.14-36.48L69.14-36.48Q69.79-36.48 70.37-36.23 70.94-35.98 71.38-35.54 71.82-35.1 72.08-34.51 72.34-33.93 72.34-33.27ZM79.89-35.83L101.97-35.83 101.97-31.88 84.77-31.88 84.77-19.35 99.47-19.35 99.47-15.4 84.77-15.4 84.77 0 79.89 0 79.89-35.83ZM107.99-36.83L112.44-36.83 112.44 0 107.99 0 107.99-36.83ZM130.53-25.73L130.53-25.73Q133.31-25.73 135.55-24.8 137.78-23.88 139.35-22.18 140.91-20.48 141.75-18.06 142.59-15.65 142.59-12.68L142.59-12.68Q142.59-9.68 141.75-7.28 140.91-4.88 139.35-3.18 137.78-1.48 135.55-0.56 133.31 0.35 130.53 0.35L130.53 0.35Q127.76 0.35 125.52-0.56 123.29-1.48 121.71-3.18 120.14-4.88 119.29-7.28 118.44-9.68 118.44-12.68L118.44-12.68Q118.44-15.65 119.29-18.06 120.14-20.48 121.71-22.18 123.29-23.88 125.52-24.8 127.76-25.73 130.53-25.73ZM130.53-3.13L130.53-3.13Q134.28-3.13 136.13-5.64 137.99-8.15 137.99-12.65L137.99-12.65Q137.99-17.18 136.13-19.7 134.28-22.23 130.53-22.23L130.53-22.23Q128.63-22.23 127.24-21.58 125.84-20.93 124.9-19.7 123.96-18.48 123.5-16.69 123.04-14.9 123.04-12.65L123.04-12.65Q123.04-10.4 123.5-8.63 123.96-6.85 124.9-5.64 125.84-4.42 127.24-3.78 128.63-3.13 130.53-3.13ZM152.98 0L144.78-25.33 148.28-25.33Q148.83-25.33 149.18-25.05 149.53-24.78 149.66-24.4L149.66-24.4 154.51-8.1Q154.71-7.2 154.88-6.36 155.06-5.53 155.18-4.67L155.18-4.67Q155.38-5.53 155.63-6.36 155.88-7.2 156.16-8.1L156.16-8.1 161.51-24.5Q161.63-24.88 161.94-25.13 162.26-25.38 162.73-25.38L162.73-25.38 164.66-25.38Q165.16-25.38 165.48-25.13 165.81-24.88 165.93-24.5L165.93-24.5 171.16-8.1Q171.43-7.23 171.65-6.38 171.86-5.53 172.06-4.7L172.06-4.7Q172.18-5.53 172.38-6.43 172.58-7.33 172.81-8.1L172.81-8.1 177.76-24.4Q177.88-24.8 178.23-25.06 178.58-25.33 179.06-25.33L179.06-25.33 182.41-25.33 174.21 0 170.68 0Q170.03 0 169.78-0.85L169.78-0.85 164.18-18.03Q163.98-18.6 163.86-19.19 163.73-19.78 163.61-20.35L163.61-20.35Q163.48-19.78 163.36-19.18 163.23-18.57 163.03-18L163.03-18 157.36-0.85Q157.08 0 156.33 0L156.33 0 152.98 0Z" opacity="1" transform="matrix(1,0,0,1,0,0)" fill="#ffffff" class="wordmark-text-0" data-fill-palette-color="primary" id="text-0"></path></svg></g></svg></g></svg></g></svg></g><g transform="matrix(1,0,0,1,40.730750589648544,0)"><svg viewBox="0 0 111.49849882070289 111.50671979652398" height="111.50671979652398" width="111.49849882070289"><g><svg xmlns="http://www.w3.org/2000/svg" xmlns:xlink="http://www.w3.org/1999/xlink" version="1.1" viewBox="3 2.9973641454214888 90 90.00663585457852" x="0" y="0" height="111.50671979652398" width="111.49849882070289" class="icon-icon-0" data-fill-palette-color="accent" id="icon-0"><path d="M25 29.004h-20c-1.104 0-2-0.9-2-2v-20c0-1.104 0.896-2 2-2h20c1.104 0 2 0.896 2 2v20c0 1.1-0.896 2-2 2zM7 25.004h16v-16h-16v16z" fill="#ffffff" data-fill-palette-color="accent"></path><path d="M15 23.004c-0.148 0-0.3-0.016-0.444-0.056-0.588-0.132-1.084-0.528-1.352-1.068l-3.832-7.832c-0.484-0.992-0.076-2.188 0.916-2.676 0.996-0.488 2.188-0.072 2.676 0.916l2.744 5.608 18.392-14.472c0.868-0.68 2.128-0.532 2.808 0.336 0.68 0.872 0.532 2.124-0.336 2.808l-20.336 16c-0.356 0.288-0.792 0.436-1.236 0.436z" fill="#ffffff" data-fill-palette-color="accent"></path><path d="M25 61.004h-20c-1.104 0-2-0.9-2-2v-20c0-1.104 0.896-2 2-2h20c1.104 0 2 0.896 2 2v20c0 1.1-0.896 2-2 2zM7 57.004h16v-16h-16v16z" fill="#ffffff" data-fill-palette-color="accent"></path><path d="M15 55.004c-0.148 0-0.3-0.016-0.444-0.056-0.588-0.132-1.084-0.528-1.352-1.072l-3.832-7.832c-0.484-0.992-0.076-2.188 0.916-2.676 0.996-0.488 2.188-0.076 2.676 0.916l2.744 5.608 18.392-14.472c0.868-0.68 2.128-0.528 2.808 0.336 0.68 0.872 0.532 2.124-0.336 2.808l-20.336 16c-0.356 0.292-0.792 0.44-1.236 0.44z" fill="#ffffff" data-fill-palette-color="accent"></path><path d="M25 93.004h-20c-1.104 0-2-0.9-2-2v-20c0-1.104 0.896-2 2-2h20c1.104 0 2 0.896 2 2v20c0 1.1-0.896 2-2 2zM7 89.004h16v-16h-16v16z" fill="#ffffff" data-fill-palette-color="accent"></path><path d="M91 77.004h-44c-1.104 0-2-0.9-2-2 0-1.104 0.896-2 2-2h44c1.1 0 2 0.896 2 2 0 1.1-0.9 2-2 2z" fill="#ffffff" data-fill-palette-color="accent"></path><path d="M91 89.004h-44c-1.104 0-2-0.9-2-2 0-1.104 0.896-2 2-2h44c1.1 0 2 0.896 2 2 0 1.1-0.9 2-2 2z" fill="#ffffff" data-fill-palette-color="accent"></path><path d="M91 45.004h-44c-1.104 0-2-0.9-2-2 0-1.104 0.896-2 2-2h44c1.1 0 2 0.896 2 2 0 1.1-0.9 2-2 2z" fill="#ffffff" data-fill-palette-color="accent"></path><path d="M91 57.004h-44c-1.104 0-2-0.9-2-2 0-1.104 0.896-2 2-2h44c1.1 0 2 0.896 2 2 0 1.1-0.9 2-2 2z" fill="#ffffff" data-fill-palette-color="accent"></path><path d="M91 13.004h-44c-1.104 0-2-0.9-2-2 0-1.104 0.896-2 2-2h44c1.1 0 2 0.896 2 2 0 1.1-0.9 2-2 2z" fill="#ffffff" data-fill-palette-color="accent"></path><path d="M91 25.004h-44c-1.104 0-2-0.9-2-2 0-1.104 0.896-2 2-2h44c1.1 0 2 0.896 2 2 0 1.1-0.9 2-2 2z" fill="#ffffff" data-fill-palette-color="accent"></path></svg></g></svg></g><g></g></svg></g></svg></g></svg></g><defs></defs></svg><rect width="320" height="360" fill="none" stroke="none" visibility="hidden"></rect></g></svg></g></svg>