<svg xmlns="http://www.w3.org/2000/svg" xmlns:xlink="http://www.w3.org/1999/xlink" version="1.1" width="1000" height="1000" viewBox="0 0 1000 1000" xml:space="preserve">
<desc>Created with Fabric.js 3.5.0</desc>
<defs>
</defs>
<rect x="0" y="0" width="100%" height="100%" fill="#ffffff"/>
<g transform="matrix(1.3605 0 0 1.3605 500.0233 500.0233)" id="590797">
<g style="" vector-effect="non-scaling-stroke">
		<g transform="matrix(1 0 0 1 0 0)">
<rect style="stroke: none; stroke-width: 1; stroke-dasharray: none; stroke-linecap: butt; stroke-dashoffset: 0; stroke-linejoin: miter; stroke-miterlimit: 4; is-custom-font: none; font-file-url: none; fill: rgb(255,255,255); fill-rule: nonzero; opacity: 1;" x="-500" y="-500" rx="0" ry="0" width="1000" height="1000"/>
</g>
		<g transform="matrix(7.7778 0 0 7.7778 0.0011 0.0011)" id="tight-bounds">
<path style="stroke: none; stroke-width: 1; stroke-dasharray: none; stroke-linecap: butt; stroke-dashoffset: 0; stroke-linejoin: miter; stroke-miterlimit: 10; is-custom-font: none; font-file-url: none; fill: rgb(0,0,0); fill-rule: nonzero; opacity: 1;" transform=" translate(-50, -50)" d="M 95 52 c 0 -12.871 -5.692 -24.431 -14.682 -32.318 c -7.887 -8.99 -19.447 -14.682 -32.318 -14.682 c -23.71 0 -43 19.29 -43 43 c 0 12.868 5.69 24.426 14.677 32.313 c 7.887 8.993 19.449 14.687 32.323 14.687 c 0.084 0 0.166 -0.006 0.25 -0.006 c 0.084 0 0.166 0.006 0.25 0.006 c 23.472 0 42.5 -19.028 42.5 -42.5 c 0 -0.084 -0.006 -0.166 -0.006 -0.25 c 0 -0.084 0.006 -0.166 0.006 -0.25 z M 21.828 73.371 c -4.245 -5.978 -6.77 -13.259 -6.822 -21.121 c 0.135 -20.511 16.732 -37.109 37.244 -37.244 c 7.862 0.052 15.144 2.577 21.121 6.822 c 6.853 6.645 11.129 15.93 11.129 26.172 c 0 20.126 -16.374 36.5 -36.5 36.5 c -10.242 0 -19.527 -4.276 -26.172 -11.129 z M 6 48 c 0 -23.159 18.841 -42 42 -42 c 9.858 0 18.926 3.422 26.1 9.13 c -6.463 -3.888 -14.024 -6.13 -22.1 -6.13 c -23.71 0 -43 19.29 -43 43 c 0 8.074 2.241 15.633 6.127 22.095 c -5.706 -7.172 -9.127 -16.239 -9.127 -26.095 z M 52 89 c -10.08 0 -19.227 -4.055 -25.905 -10.615 c 6.174 4.469 13.743 7.115 21.905 7.115 c 20.678 0 37.5 -16.822 37.5 -37.5 c 0 -8.162 -2.646 -15.731 -7.115 -21.905 c 6.56 6.678 10.615 15.825 10.615 25.905 c 0 20.402 -16.598 37 -37 37 z" stroke-linecap="round"/>
</g>
		<g transform="matrix(2.1766 0 0 2.1766 -0.0016 38.943)" id="r&#x24;-0">
<rect style="stroke: rgb(255,255,255); stroke-opacity: 0; stroke-width: 0; stroke-dasharray: none; stroke-linecap: butt; stroke-dashoffset: 0; stroke-linejoin: miter; stroke-miterlimit: 4; is-custom-font: none; font-file-url: none; fill: rgb(0,0,0); fill-rule: nonzero; opacity: 1;" x="-96.48" y="-1.86575" rx="1" ry="1" width="192.96" height="3.7315"/>
</g>
		<g transform="matrix(2.1766 0 0 2.1766 -0.0016 57.6962)" id="r&#x24;-1">
<rect style="stroke: rgb(255,255,255); stroke-opacity: 0; stroke-width: 0; stroke-dasharray: none; stroke-linecap: butt; stroke-dashoffset: 0; stroke-linejoin: miter; stroke-miterlimit: 4; is-custom-font: none; font-file-url: none; fill: rgb(0,0,0); fill-rule: nonzero; opacity: 1;" x="-96.48" y="-1.86575" rx="1" ry="1" width="192.96" height="3.7315"/>
</g>
		<g transform="matrix(1.8362 0 0 1.8362 0.0371 128.0522)" id="text-0">
<path style="stroke: none; stroke-width: 1; stroke-dasharray: none; stroke-linecap: butt; stroke-dashoffset: 0; stroke-linejoin: miter; stroke-miterlimit: 4; is-custom-font: none; font-file-url: none; fill: rgb(0,0,0); fill-rule: nonzero; opacity: 1;" transform=" translate(-117.03, 14.515)" d="M 27.25 -7.01 L 27.25 0 L 3.25 0 L 3.25 -35.01 L 27.25 -35.01 L 27.25 -28 L 10.25 -28 L 10.25 -21 L 21.75 -21 L 21.75 -13.99 L 10.25 -13.99 L 10.25 -7.01 L 27.25 -7.01 Z M 39.67 -19.51 L 39.67 0 L 33.01 0 L 33.01 -19.51 L 29.76 -19.51 L 29.76 -26.15 L 33.01 -26.15 L 33.01 -27.39 Q 33.01 -29.81 33.92 -31.93 Q 34.84 -34.06 36.44 -35.63 Q 38.03 -37.21 40.16 -38.12 Q 42.28 -39.04 44.7 -39.04 L 44.7 -39.04 L 49.7 -39.04 L 49.7 -32.4 L 44.7 -32.4 Q 43.63 -32.4 42.71 -32.02 Q 41.79 -31.64 41.12 -30.97 Q 40.45 -30.3 40.06 -29.38 Q 39.67 -28.47 39.67 -27.39 L 39.67 -27.39 L 39.67 -26.15 L 47.85 -26.15 L 47.85 -19.51 L 39.67 -19.51 Z M 59.47 -19.51 L 59.47 0 L 52.8 0 L 52.8 -19.51 L 49.56 -19.51 L 49.56 -26.15 L 52.8 -26.15 L 52.8 -27.39 Q 52.8 -29.81 53.72 -31.93 Q 54.63 -34.06 56.23 -35.63 Q 57.83 -37.21 59.96 -38.12 Q 62.08 -39.04 64.5 -39.04 L 64.5 -39.04 L 69.5 -39.04 L 69.5 -32.4 L 64.5 -32.4 Q 63.42 -32.4 62.51 -32.02 Q 61.59 -31.64 60.92 -30.97 Q 60.25 -30.3 59.86 -29.38 Q 59.47 -28.47 59.47 -27.39 L 59.47 -27.39 L 59.47 -26.15 L 67.65 -26.15 L 67.65 -19.51 L 59.47 -19.51 Z M 79.61 -33.25 L 79.61 -33.25 Q 79.61 -32.32 79.25 -31.52 Q 78.9 -30.71 78.29 -30.11 Q 77.68 -29.52 76.86 -29.16 Q 76.04 -28.81 75.11 -28.81 L 75.11 -28.81 Q 74.19 -28.81 73.37 -29.16 Q 72.55 -29.52 71.95 -30.11 Q 71.35 -30.71 71 -31.52 Q 70.65 -32.32 70.65 -33.25 L 70.65 -33.25 Q 70.65 -34.16 71 -34.97 Q 71.35 -35.79 71.95 -36.39 Q 72.55 -36.99 73.37 -37.34 Q 74.19 -37.7 75.11 -37.7 L 75.11 -37.7 Q 76.04 -37.7 76.86 -37.34 Q 77.68 -36.99 78.29 -36.39 Q 78.9 -35.79 79.25 -34.97 Q 79.61 -34.16 79.61 -33.25 Z M 78.46 -26.15 L 78.46 0 L 71.75 0 L 71.75 -26.15 L 78.46 -26.15 Z M 102.14 -13.31 L 102.14 -13.31 Q 102.14 -14.67 101.61 -15.95 Q 101.09 -17.24 100.19 -18.23 Q 99.28 -19.21 98.07 -19.81 Q 96.87 -20.41 95.5 -20.41 L 95.5 -20.41 Q 94.13 -20.41 92.92 -19.95 Q 91.71 -19.48 90.82 -18.58 Q 89.93 -17.68 89.42 -16.35 Q 88.91 -15.01 88.91 -13.31 L 88.91 -13.31 Q 88.91 -11.67 89.42 -10.36 Q 89.93 -9.06 90.82 -8.13 Q 91.71 -7.2 92.92 -6.7 Q 94.13 -6.2 95.5 -6.2 L 95.5 -6.2 Q 96.87 -6.2 98.07 -6.8 Q 99.28 -7.4 100.19 -8.39 Q 101.09 -9.38 101.61 -10.66 Q 102.14 -11.94 102.14 -13.31 Z M 108.85 -26.1 L 108.85 -3.3 Q 108.85 -0.54 107.8 1.88 Q 106.75 4.3 104.93 6.1 Q 103.12 7.91 100.69 8.96 Q 98.26 10.01 95.5 10.01 L 95.5 10.01 L 92.15 9.96 L 92.15 3.3 L 95.45 3.34 Q 97.01 3.34 98.11 2.94 Q 99.21 2.54 99.97 1.84 Q 100.72 1.15 101.17 0.24 Q 101.63 -0.66 101.89 -1.66 L 101.89 -1.66 Q 101.5 -1.03 100.77 -0.62 Q 100.04 -0.22 99.15 0.04 Q 98.26 0.29 97.29 0.39 Q 96.33 0.49 95.5 0.49 L 95.5 0.49 Q 92.74 0.49 90.31 -0.46 Q 87.88 -1.42 86.06 -3.19 Q 84.24 -4.96 83.19 -7.52 Q 82.14 -10.08 82.14 -13.31 L 82.14 -13.31 Q 82.14 -16.26 83.19 -18.8 Q 84.24 -21.34 86.06 -23.19 Q 87.88 -25.05 90.31 -26.1 Q 92.74 -27.15 95.5 -27.15 L 95.5 -27.15 Q 96.77 -27.15 98.01 -26.83 Q 99.26 -26.51 100.43 -25.95 Q 101.6 -25.39 102.66 -24.63 Q 103.73 -23.88 104.65 -23 L 104.65 -23 L 107.24 -26.1 L 108.85 -26.1 Z M 136.83 -21.46 L 124.33 -6.4 Q 124.72 -6.27 125.11 -6.24 Q 125.5 -6.2 125.89 -6.2 L 125.89 -6.2 Q 126.87 -6.2 127.77 -6.47 Q 128.67 -6.74 129.47 -7.24 Q 130.26 -7.74 130.88 -8.46 Q 131.51 -9.18 131.9 -10.06 L 131.9 -10.06 L 136.78 -5.15 Q 135.85 -3.83 134.64 -2.78 Q 133.43 -1.73 132.03 -1 Q 130.63 -0.27 129.08 0.11 Q 127.53 0.49 125.89 0.49 L 125.89 0.49 Q 123.13 0.49 120.7 -0.54 Q 118.27 -1.56 116.45 -3.39 Q 114.64 -5.22 113.59 -7.75 Q 112.54 -10.28 112.54 -13.31 L 112.54 -13.31 Q 112.54 -16.41 113.59 -18.97 Q 114.64 -21.53 116.45 -23.34 Q 118.27 -25.15 120.7 -26.15 Q 123.13 -27.15 125.89 -27.15 L 125.89 -27.15 Q 127.53 -27.15 129.09 -26.76 Q 130.65 -26.37 132.06 -25.63 Q 133.46 -24.9 134.68 -23.84 Q 135.9 -22.78 136.83 -21.46 L 136.83 -21.46 Z M 119.98 -9.84 L 127.75 -20.14 Q 127.28 -20.31 126.83 -20.36 Q 126.38 -20.41 125.89 -20.41 L 125.89 -20.41 Q 124.52 -20.41 123.32 -19.91 Q 122.11 -19.41 121.22 -18.48 Q 120.32 -17.55 119.81 -16.25 Q 119.3 -14.94 119.3 -13.31 L 119.3 -13.31 Q 119.3 -12.94 119.34 -12.48 Q 119.37 -12.01 119.46 -11.54 Q 119.54 -11.06 119.67 -10.62 Q 119.79 -10.18 119.98 -9.84 L 119.98 -9.84 Z M 146.84 -14.94 L 146.84 0 L 140.17 0 L 140.17 -26.15 L 141.78 -26.15 L 143.98 -23.61 Q 145.59 -25.07 147.63 -25.87 Q 149.67 -26.66 151.89 -26.66 L 151.89 -26.66 Q 154.28 -26.66 156.41 -25.74 Q 158.53 -24.83 160.12 -23.23 Q 161.7 -21.63 162.62 -19.49 Q 163.53 -17.36 163.53 -14.94 L 163.53 -14.94 L 163.53 0 L 156.87 0 L 156.87 -14.94 Q 156.87 -15.97 156.48 -16.88 Q 156.09 -17.8 155.4 -18.48 Q 154.72 -19.17 153.82 -19.56 Q 152.91 -19.95 151.89 -19.95 L 151.89 -19.95 Q 150.84 -19.95 149.91 -19.56 Q 148.98 -19.17 148.3 -18.48 Q 147.62 -17.8 147.23 -16.88 Q 146.84 -15.97 146.84 -14.94 L 146.84 -14.94 Z M 176.13 -33.25 L 176.13 -33.25 Q 176.13 -32.32 175.78 -31.52 Q 175.42 -30.71 174.81 -30.11 Q 174.2 -29.52 173.38 -29.16 Q 172.57 -28.81 171.64 -28.81 L 171.64 -28.81 Q 170.71 -28.81 169.89 -29.16 Q 169.07 -29.52 168.48 -30.11 Q 167.88 -30.71 167.52 -31.52 Q 167.17 -32.32 167.17 -33.25 L 167.17 -33.25 Q 167.17 -34.16 167.52 -34.97 Q 167.88 -35.79 168.48 -36.39 Q 169.07 -36.99 169.89 -37.34 Q 170.71 -37.7 171.64 -37.7 L 171.64 -37.7 Q 172.57 -37.7 173.38 -37.34 Q 174.2 -36.99 174.81 -36.39 Q 175.42 -35.79 175.78 -34.97 Q 176.13 -34.16 176.13 -33.25 Z M 174.98 -26.15 L 174.98 0 L 168.27 0 L 168.27 -26.15 L 174.98 -26.15 Z M 201.47 0 L 199.27 -3.05 Q 198.47 -2.32 197.55 -1.67 Q 196.64 -1.03 195.63 -0.55 Q 194.63 -0.07 193.57 0.21 Q 192.51 0.49 191.41 0.49 L 191.41 0.49 Q 188.99 0.49 186.87 -0.37 Q 184.75 -1.22 183.15 -2.8 Q 181.55 -4.37 180.63 -6.63 Q 179.72 -8.89 179.72 -11.69 L 179.72 -11.69 L 179.72 -26.15 L 186.36 -26.15 L 186.36 -11.69 Q 186.36 -10.38 186.76 -9.34 Q 187.16 -8.3 187.85 -7.59 Q 188.53 -6.88 189.45 -6.52 Q 190.36 -6.15 191.41 -6.15 L 191.41 -6.15 Q 192.44 -6.15 193.35 -6.63 Q 194.27 -7.1 194.95 -7.89 Q 195.63 -8.67 196.02 -9.66 Q 196.42 -10.64 196.42 -11.69 L 196.42 -11.69 L 196.42 -26.15 L 203.08 -26.15 L 203.08 0 L 201.47 0 Z M 222.51 0 L 222.51 0 L 207.28 0 L 207.28 -6.64 L 222.51 -6.64 Q 223.2 -6.64 223.68 -7.13 Q 224.17 -7.62 224.17 -8.3 L 224.17 -8.3 Q 224.17 -9.01 223.68 -9.23 Q 223.2 -9.45 222.51 -9.45 L 222.51 -9.45 L 215.58 -9.45 Q 213.84 -9.45 212.33 -10.11 Q 210.82 -10.77 209.69 -11.9 Q 208.57 -13.04 207.92 -14.55 Q 207.28 -16.06 207.28 -17.8 L 207.28 -17.8 Q 207.28 -19.53 207.92 -21.04 Q 208.57 -22.56 209.69 -23.68 Q 210.82 -24.8 212.33 -25.45 Q 213.84 -26.1 215.58 -26.1 L 215.58 -26.1 L 229.08 -26.1 L 229.08 -19.46 L 215.58 -19.46 Q 214.89 -19.46 214.41 -18.97 Q 213.92 -18.48 213.92 -17.8 L 213.92 -17.8 Q 213.92 -17.09 214.41 -16.59 Q 214.89 -16.09 215.58 -16.09 L 215.58 -16.09 L 222.51 -16.09 Q 224.22 -16.09 225.73 -15.52 Q 227.25 -14.94 228.37 -13.92 Q 229.49 -12.89 230.15 -11.45 Q 230.81 -10.01 230.81 -8.3 L 230.81 -8.3 Q 230.81 -6.57 230.15 -5.07 Q 229.49 -3.56 228.37 -2.43 Q 227.25 -1.29 225.73 -0.65 Q 224.22 0 222.51 0 Z" stroke-linecap="round"/>
</g>
		<g transform="matrix(2.0743 0 0 2.0743 -68.4535 -144.0299)" id="icon-0">
<path style="stroke: none; stroke-width: 1; stroke-dasharray: none; stroke-linecap: butt; stroke-dashoffset: 0; stroke-linejoin: miter; stroke-miterlimit: 4; is-custom-font: none; font-file-url: none; fill: rgb(0,0,0); fill-rule: nonzero; opacity: 1;" transform=" translate(-15, -17.004)" d="M 25 29.004 h -20 c -1.104 0 -2 -0.9 -2 -2 v -20 c 0 -1.104 0.896 -2 2 -2 h 20 c 1.104 0 2 0.896 2 2 v 20 c 0 1.1 -0.896 2 -2 2 z M 7 25.004 h 16 v -16 h -16 v 16 z" stroke-linecap="round"/>
</g>
		<g transform="matrix(2.0743 0 0 2.0743 -51.3371 -152.3341)" id="icon-0">
<path style="stroke: none; stroke-width: 1; stroke-dasharray: none; stroke-linecap: butt; stroke-dashoffset: 0; stroke-linejoin: miter; stroke-miterlimit: 4; is-custom-font: none; font-file-url: none; fill: rgb(0,0,0); fill-rule: nonzero; opacity: 1;" transform=" translate(-23.2515, -13.0007)" d="M 15 23.004 c -0.148 0 -0.3 -0.016 -0.444 -0.056 c -0.588 -0.132 -1.084 -0.528 -1.352 -1.068 l -3.832 -7.832 c -0.484 -0.992 -0.076 -2.188 0.916 -2.676 c 0.996 -0.488 2.188 -0.072 2.676 0.916 l 2.744 5.608 l 18.392 -14.472 c 0.868 -0.68 2.128 -0.532 2.808 0.336 c 0.68 0.872 0.532 2.124 -0.336 2.808 l -20.336 16 c -0.356 0.288 -0.792 0.436 -1.236 0.436 z" stroke-linecap="round"/>
</g>
		<g transform="matrix(2.0743 0 0 2.0743 -68.4535 -77.6513)" id="icon-0">
<path style="stroke: none; stroke-width: 1; stroke-dasharray: none; stroke-linecap: butt; stroke-dashoffset: 0; stroke-linejoin: miter; stroke-miterlimit: 4; is-custom-font: none; font-file-url: none; fill: rgb(0,0,0); fill-rule: nonzero; opacity: 1;" transform=" translate(-15, -49.004)" d="M 25 61.004 h -20 c -1.104 0 -2 -0.9 -2 -2 v -20 c 0 -1.104 0.896 -2 2 -2 h 20 c 1.104 0 2 0.896 2 2 v 20 c 0 1.1 -0.896 2 -2 2 z M 7 57.004 h 16 v -16 h -16 v 16 z" stroke-linecap="round"/>
</g>
		<g transform="matrix(2.0743 0 0 2.0743 -51.3371 -85.9583)" id="icon-0">
<path style="stroke: none; stroke-width: 1; stroke-dasharray: none; stroke-linecap: butt; stroke-dashoffset: 0; stroke-linejoin: miter; stroke-miterlimit: 4; is-custom-font: none; font-file-url: none; fill: rgb(0,0,0); fill-rule: nonzero; opacity: 1;" transform=" translate(-23.2515, -44.9993)" d="M 15 55.004 c -0.148 0 -0.3 -0.016 -0.444 -0.056 c -0.588 -0.132 -1.084 -0.528 -1.352 -1.072 l -3.832 -7.832 c -0.484 -0.992 -0.076 -2.188 0.916 -2.676 c 0.996 -0.488 2.188 -0.076 2.676 0.916 l 2.744 5.608 l 18.392 -14.472 c 0.868 -0.68 2.128 -0.528 2.808 0.336 c 0.68 0.872 0.532 2.124 -0.336 2.808 l -20.336 16 c -0.356 0.292 -0.792 0.44 -1.236 0.44 z" stroke-linecap="round"/>
</g>
		<g transform="matrix(2.0743 0 0 2.0743 -68.4535 -11.2726)" id="icon-0">
<path style="stroke: none; stroke-width: 1; stroke-dasharray: none; stroke-linecap: butt; stroke-dashoffset: 0; stroke-linejoin: miter; stroke-miterlimit: 4; is-custom-font: none; font-file-url: none; fill: rgb(0,0,0); fill-rule: nonzero; opacity: 1;" transform=" translate(-15, -81.004)" d="M 25 93.004 h -20 c -1.104 0 -2 -0.9 -2 -2 v -20 c 0 -1.104 0.896 -2 2 -2 h 20 c 1.104 0 2 0.896 2 2 v 20 c 0 1.1 -0.896 2 -2 2 z M 7 89.004 h 16 v -16 h -16 v 16 z" stroke-linecap="round"/>
</g>
		<g transform="matrix(2.0743 0 0 2.0743 43.5602 -23.7182)" id="icon-0">
<path style="stroke: none; stroke-width: 1; stroke-dasharray: none; stroke-linecap: butt; stroke-dashoffset: 0; stroke-linejoin: miter; stroke-miterlimit: 4; is-custom-font: none; font-file-url: none; fill: rgb(0,0,0); fill-rule: nonzero; opacity: 1;" transform=" translate(-69, -75.004)" d="M 91 77.004 h -44 c -1.104 0 -2 -0.9 -2 -2 c 0 -1.104 0.896 -2 2 -2 h 44 c 1.1 0 2 0.896 2 2 c 0 1.1 -0.9 2 -2 2 z" stroke-linecap="round"/>
</g>
		<g transform="matrix(2.0743 0 0 2.0743 43.5602 1.1739)" id="icon-0">
<path style="stroke: none; stroke-width: 1; stroke-dasharray: none; stroke-linecap: butt; stroke-dashoffset: 0; stroke-linejoin: miter; stroke-miterlimit: 4; is-custom-font: none; font-file-url: none; fill: rgb(0,0,0); fill-rule: nonzero; opacity: 1;" transform=" translate(-69, -87.004)" d="M 91 89.004 h -44 c -1.104 0 -2 -0.9 -2 -2 c 0 -1.104 0.896 -2 2 -2 h 44 c 1.1 0 2 0.896 2 2 c 0 1.1 -0.9 2 -2 2 z" stroke-linecap="round"/>
</g>
		<g transform="matrix(2.0743 0 0 2.0743 43.5602 -90.0969)" id="icon-0">
<path style="stroke: none; stroke-width: 1; stroke-dasharray: none; stroke-linecap: butt; stroke-dashoffset: 0; stroke-linejoin: miter; stroke-miterlimit: 4; is-custom-font: none; font-file-url: none; fill: rgb(0,0,0); fill-rule: nonzero; opacity: 1;" transform=" translate(-69, -43.004)" d="M 91 45.004 h -44 c -1.104 0 -2 -0.9 -2 -2 c 0 -1.104 0.896 -2 2 -2 h 44 c 1.1 0 2 0.896 2 2 c 0 1.1 -0.9 2 -2 2 z" stroke-linecap="round"/>
</g>
		<g transform="matrix(2.0743 0 0 2.0743 43.5602 -65.2049)" id="icon-0">
<path style="stroke: none; stroke-width: 1; stroke-dasharray: none; stroke-linecap: butt; stroke-dashoffset: 0; stroke-linejoin: miter; stroke-miterlimit: 4; is-custom-font: none; font-file-url: none; fill: rgb(0,0,0); fill-rule: nonzero; opacity: 1;" transform=" translate(-69, -55.004)" d="M 91 57.004 h -44 c -1.104 0 -2 -0.9 -2 -2 c 0 -1.104 0.896 -2 2 -2 h 44 c 1.1 0 2 0.896 2 2 c 0 1.1 -0.9 2 -2 2 z" stroke-linecap="round"/>
</g>
		<g transform="matrix(2.0743 0 0 2.0743 43.5602 -156.4756)" id="icon-0">
<path style="stroke: none; stroke-width: 1; stroke-dasharray: none; stroke-linecap: butt; stroke-dashoffset: 0; stroke-linejoin: miter; stroke-miterlimit: 4; is-custom-font: none; font-file-url: none; fill: rgb(0,0,0); fill-rule: nonzero; opacity: 1;" transform=" translate(-69, -11.004)" d="M 91 13.004 h -44 c -1.104 0 -2 -0.9 -2 -2 c 0 -1.104 0.896 -2 2 -2 h 44 c 1.1 0 2 0.896 2 2 c 0 1.1 -0.9 2 -2 2 z" stroke-linecap="round"/>
</g>
		<g transform="matrix(2.0743 0 0 2.0743 43.5602 -131.5835)" id="icon-0">
<path style="stroke: none; stroke-width: 1; stroke-dasharray: none; stroke-linecap: butt; stroke-dashoffset: 0; stroke-linejoin: miter; stroke-miterlimit: 4; is-custom-font: none; font-file-url: none; fill: rgb(0,0,0); fill-rule: nonzero; opacity: 1;" transform=" translate(-69, -23.004)" d="M 91 25.004 h -44 c -1.104 0 -2 -0.9 -2 -2 c 0 -1.104 0.896 -2 2 -2 h 44 c 1.1 0 2 0.896 2 2 c 0 1.1 -0.9 2 -2 2 z" stroke-linecap="round"/>
</g>
		<g transform="matrix(2.1875 0 0 2.1875 0 0)" id="tight-bounds">
<rect style="stroke: none; stroke-width: 1; stroke-dasharray: none; stroke-linecap: butt; stroke-dashoffset: 0; stroke-linejoin: miter; stroke-miterlimit: 4; is-custom-font: none; font-file-url: none; fill: none; fill-rule: nonzero; opacity: 1;" x="-160" y="-180" rx="0" ry="0" width="320" height="360"/>
</g>
</g>
</g>
</svg>