<svg xmlns="http://www.w3.org/2000/svg" version="1.1" xmlns:xlink="http://www.w3.org/1999/xlink" xmlns:svgjs="http://svgjs.dev/svgjs" width="1000" height="1000" viewBox="0 0 1000 1000"><rect width="1000" height="1000" fill="#3b72d2"></rect><g transform="matrix(0.7,0,0,0.7,150.000459375,106.25)"><svg viewBox="0 0 320 360" data-background-color="#3b72d2" preserveAspectRatio="xMidYMid meet" height="1125" width="1000" xmlns="http://www.w3.org/2000/svg" xmlns:xlink="http://www.w3.org/1999/xlink"><g id="tight-bounds" transform="matrix(1,0,0,1,-0.00020999999998139174,0)"><svg viewBox="0 0 320 360" height="360" width="320"><g><svg></svg></g><g><svg viewBox="0 0 320 360" height="360" width="320"><g><path transform="translate(-17.77778,2.22222) scale(3.55556,3.55556)" d="M95 52c0-12.871-5.692-24.431-14.682-32.318-7.887-8.99-19.447-14.682-32.318-14.682-23.71 0-43 19.29-43 43 0 12.868 5.69 24.426 14.677 32.313 7.887 8.993 19.449 14.687 32.323 14.687 0.084 0 0.166-0.006 0.25-0.006 0.084 0 0.166 0.006 0.25 0.006 23.472 0 42.5-19.028 42.5-42.5 0-0.084-0.006-0.166-0.006-0.25 0-0.084 0.006-0.166 0.006-0.25zM21.828 73.371c-4.245-5.978-6.77-13.259-6.822-21.121 0.135-20.511 16.732-37.109 37.244-37.244 7.862 0.052 15.144 2.577 21.121 6.822 6.853 6.645 11.129 15.93 11.129 26.172 0 20.126-16.374 36.5-36.5 36.5-10.242 0-19.527-4.276-26.172-11.129zM6 48c0-23.159 18.841-42 42-42 9.858 0 18.926 3.422 26.1 9.13-6.463-3.888-14.024-6.13-22.1-6.13-23.71 0-43 19.29-43 43 0 8.074 2.241 15.633 6.127 22.095-5.706-7.172-9.127-16.239-9.127-26.095zM52 89c-10.08 0-19.227-4.055-25.905-10.615 6.174 4.469 13.743 7.115 21.905 7.115 20.678 0 37.5-16.822 37.5-37.5 0-8.162-2.646-15.731-7.115-21.905 6.56 6.678 10.615 15.825 10.615 25.905 0 20.402-16.598 37-37 37z" fill="#ffffff" fill-rule="nonzero" stroke="none" stroke-width="1" stroke-linecap="butt" stroke-linejoin="miter" stroke-miterlimit="10" stroke-dasharray="" stroke-dashoffset="0" font-family="none" font-weight="none" font-size="none" text-anchor="none" style="mix-blend-mode: normal" data-fill-palette-color="tertiary"></path></g><g transform="matrix(1,0,0,1,64,127.99692110749146)"><svg viewBox="0 0 192 104.0061577850171" height="104.0061577850171" width="192"><g><svg viewBox="0 0 192.95999999999998 104.52618857394216" height="104.0061577850171" width="192"><g><rect width="192.95999999999998" height="2.990047226901155" x="0" y="53.6490163110499" fill="#ffffff" opacity="1" stroke-width="0" stroke="transparent" fill-opacity="1" class="rect-r$-0" data-fill-palette-color="primary" rx="1%" id="r$-0" data-palette-color="#ffffff"></rect></g><g><rect width="192.95999999999998" height="2.990047226901155" x="0" y="60.55273791871172" fill="#ffffff" opacity="1" stroke-width="0" stroke="transparent" fill-opacity="1" class="rect-r$-1" data-fill-palette-color="primary" rx="1%" id="r$-1" data-palette-color="#ffffff"></rect></g><g transform="matrix(1,0,0,1,0.47999999999998977,71.37013390713422)"><svg viewBox="0 0 192 33.156054666807925" height="33.156054666807925" width="192"><g id="textblocktransform"><svg viewBox="0 0 192 33.156054666807925" height="33.156054666807925" width="192" id="textblock"><g><svg viewBox="0 0 192 33.156054666807925" height="33.156054666807925" width="192"><g transform="matrix(1,0,0,1,0,0)"><svg width="192" viewBox="3.25 -39.04 230.42 39.8" height="33.156054666807925" data-palette-color="#ffffff"><path d="M27.25-7.01L27.25 0 3.25 0 3.25-35.01 27.25-35.01 27.25-28 10.25-28 10.25-21 21.75-21 21.75-13.99 10.25-13.99 10.25-7.01 27.25-7.01ZM39.67-19.51L39.67 0 33.01 0 33.01-19.51 29.76-19.51 29.76-26.15 33.01-26.15 33.01-27.39Q33.01-29.81 33.92-31.93 34.84-34.06 36.44-35.63 38.03-37.21 40.16-38.12 42.28-39.04 44.7-39.04L44.7-39.04 49.7-39.04 49.7-32.4 44.7-32.4Q43.63-32.4 42.71-32.02 41.79-31.64 41.12-30.97 40.45-30.3 40.06-29.38 39.67-28.47 39.67-27.39L39.67-27.39 39.67-26.15 47.85-26.15 47.85-19.51 39.67-19.51ZM59.47-19.51L59.47 0 52.8 0 52.8-19.51 49.56-19.51 49.56-26.15 52.8-26.15 52.8-27.39Q52.8-29.81 53.72-31.93 54.63-34.06 56.23-35.63 57.83-37.21 59.96-38.12 62.08-39.04 64.5-39.04L64.5-39.04 69.5-39.04 69.5-32.4 64.5-32.4Q63.42-32.4 62.51-32.02 61.59-31.64 60.92-30.97 60.25-30.3 59.86-29.38 59.47-28.47 59.47-27.39L59.47-27.39 59.47-26.15 67.65-26.15 67.65-19.51 59.47-19.51ZM79.61-33.25L79.61-33.25Q79.61-32.32 79.25-31.52 78.9-30.71 78.29-30.11 77.68-29.52 76.86-29.16 76.04-28.81 75.11-28.81L75.11-28.81Q74.19-28.81 73.37-29.16 72.55-29.52 71.95-30.11 71.35-30.71 71-31.52 70.65-32.32 70.65-33.25L70.65-33.25Q70.65-34.16 71-34.97 71.35-35.79 71.95-36.39 72.55-36.99 73.37-37.34 74.19-37.7 75.11-37.7L75.11-37.7Q76.04-37.7 76.86-37.34 77.68-36.99 78.29-36.39 78.9-35.79 79.25-34.97 79.61-34.16 79.61-33.25ZM78.46-26.15L78.46 0 71.75 0 71.75-26.15 78.46-26.15ZM112.1-17.36L112.1-3.54Q109.66-1.46 106.66-0.35 103.65 0.76 100.41 0.76L100.41 0.76Q97.91 0.76 95.61 0.11 93.3-0.54 91.3-1.72 89.3-2.91 87.64-4.55 85.98-6.2 84.8-8.22 83.63-10.23 82.99-12.55 82.34-14.87 82.34-17.36L82.34-17.36Q82.34-19.85 82.99-22.14 83.63-24.44 84.8-26.45 85.98-28.47 87.64-30.11 89.3-31.76 91.3-32.93 93.3-34.11 95.61-34.75 97.91-35.4 100.41-35.4L100.41-35.4Q103.65-35.4 106.66-34.29 109.66-33.18 112.1-31.1L112.1-31.1 108.44-25Q106.85-26.61 104.78-27.53 102.7-28.44 100.41-28.44L100.41-28.44Q98.11-28.44 96.1-27.56 94.08-26.68 92.57-25.18 91.05-23.68 90.18-21.67 89.3-19.65 89.3-17.36L89.3-17.36Q89.3-15.04 90.18-13.01 91.05-10.99 92.57-9.47 94.08-7.96 96.1-7.08 98.11-6.2 100.41-6.2L100.41-6.2Q101.72-6.2 102.97-6.52 104.21-6.84 105.34-7.4L105.34-7.4 105.34-17.36 112.1-17.36ZM139.68-21.46L127.18-6.4Q127.58-6.27 127.97-6.24 128.36-6.2 128.75-6.2L128.75-6.2Q129.72-6.2 130.63-6.47 131.53-6.74 132.32-7.24 133.12-7.74 133.74-8.46 134.36-9.18 134.75-10.06L134.75-10.06 139.64-5.15Q138.71-3.83 137.5-2.78 136.29-1.73 134.89-1 133.48-0.27 131.93 0.11 130.38 0.49 128.75 0.49L128.75 0.49Q125.99 0.49 123.56-0.54 121.13-1.56 119.31-3.39 117.49-5.22 116.44-7.75 115.39-10.28 115.39-13.31L115.39-13.31Q115.39-16.41 116.44-18.97 117.49-21.53 119.31-23.34 121.13-25.15 123.56-26.15 125.99-27.15 128.75-27.15L128.75-27.15Q130.38-27.15 131.95-26.76 133.51-26.37 134.91-25.63 136.32-24.9 137.54-23.84 138.76-22.78 139.68-21.46L139.68-21.46ZM122.84-9.84L130.6-20.14Q130.14-20.31 129.69-20.36 129.24-20.41 128.75-20.41L128.75-20.41Q127.38-20.41 126.17-19.91 124.96-19.41 124.07-18.48 123.18-17.55 122.67-16.25 122.16-14.94 122.16-13.31L122.16-13.31Q122.16-12.94 122.19-12.48 122.23-12.01 122.31-11.54 122.4-11.06 122.52-10.62 122.64-10.18 122.84-9.84L122.84-9.84ZM149.69-14.94L149.69 0 143.03 0 143.03-26.15 144.64-26.15 146.84-23.61Q148.45-25.07 150.49-25.87 152.52-26.66 154.75-26.66L154.75-26.66Q157.14-26.66 159.26-25.74 161.39-24.83 162.97-23.23 164.56-21.63 165.48-19.49 166.39-17.36 166.39-14.94L166.39-14.94 166.39 0 159.73 0 159.73-14.94Q159.73-15.97 159.34-16.88 158.94-17.8 158.26-18.48 157.58-19.17 156.67-19.56 155.77-19.95 154.75-19.95L154.75-19.95Q153.7-19.95 152.77-19.56 151.84-19.17 151.16-18.48 150.47-17.8 150.08-16.88 149.69-15.97 149.69-14.94L149.69-14.94ZM178.99-33.25L178.99-33.25Q178.99-32.32 178.63-31.52 178.28-30.71 177.67-30.11 177.06-29.52 176.24-29.16 175.42-28.81 174.49-28.81L174.49-28.81Q173.57-28.81 172.75-29.16 171.93-29.52 171.33-30.11 170.73-30.71 170.38-31.52 170.03-32.32 170.03-33.25L170.03-33.25Q170.03-34.16 170.38-34.97 170.73-35.79 171.33-36.39 171.93-36.99 172.75-37.34 173.57-37.7 174.49-37.7L174.49-37.7Q175.42-37.7 176.24-37.34 177.06-36.99 177.67-36.39 178.28-35.79 178.63-34.97 178.99-34.16 178.99-33.25ZM177.84-26.15L177.84 0 171.13 0 171.13-26.15 177.84-26.15ZM204.33 0L202.13-3.05Q201.32-2.32 200.41-1.67 199.49-1.03 198.49-0.55 197.49-0.07 196.43 0.21 195.37 0.49 194.27 0.49L194.27 0.49Q191.85 0.49 189.73-0.37 187.6-1.22 186-2.8 184.4-4.37 183.49-6.63 182.57-8.89 182.57-11.69L182.57-11.69 182.57-26.15 189.21-26.15 189.21-11.69Q189.21-10.38 189.62-9.34 190.02-8.3 190.7-7.59 191.39-6.88 192.3-6.52 193.22-6.15 194.27-6.15L194.27-6.15Q195.29-6.15 196.21-6.63 197.12-7.1 197.81-7.89 198.49-8.67 198.88-9.66 199.27-10.64 199.27-11.69L199.27-11.69 199.27-26.15 205.94-26.15 205.94 0 204.33 0ZM225.37 0L225.37 0 210.13 0 210.13-6.64 225.37-6.64Q226.05-6.64 226.54-7.13 227.03-7.62 227.03-8.3L227.03-8.3Q227.03-9.01 226.54-9.23 226.05-9.45 225.37-9.45L225.37-9.45 218.43-9.45Q216.7-9.45 215.19-10.11 213.67-10.77 212.55-11.9 211.43-13.04 210.78-14.55 210.13-16.06 210.13-17.8L210.13-17.8Q210.13-19.53 210.78-21.04 211.43-22.56 212.55-23.68 213.67-24.8 215.19-25.45 216.7-26.1 218.43-26.1L218.43-26.1 231.94-26.1 231.94-19.46 218.43-19.46Q217.75-19.46 217.26-18.97 216.77-18.48 216.77-17.8L216.77-17.8Q216.77-17.09 217.26-16.59 217.75-16.09 218.43-16.09L218.43-16.09 225.37-16.09Q227.08-16.09 228.59-15.52 230.1-14.94 231.23-13.92 232.35-12.89 233.01-11.45 233.67-10.01 233.67-8.3L233.67-8.3Q233.67-6.57 233.01-5.07 232.35-3.56 231.23-2.43 230.1-1.29 228.59-0.65 227.08 0 225.37 0Z" opacity="1" transform="matrix(1,0,0,1,0,0)" fill="#ffffff" class="wordmark-text-0" data-fill-palette-color="primary" id="text-0"></path></svg></g></svg></g></svg></g></svg></g><g transform="matrix(1,0,0,1,73.57085535581768,0)"><svg viewBox="0 0 45.81828928836462 45.82166754952855" height="45.82166754952855" width="45.81828928836462"><g><svg xmlns="http://www.w3.org/2000/svg" xmlns:xlink="http://www.w3.org/1999/xlink" version="1.1" viewBox="3 2.9973641454214888 90 90.00663585457852" x="0" y="0" height="45.82166754952855" width="45.81828928836462" class="icon-icon-0" data-fill-palette-color="accent" id="icon-0"><path d="M25 29.004h-20c-1.104 0-2-0.9-2-2v-20c0-1.104 0.896-2 2-2h20c1.104 0 2 0.896 2 2v20c0 1.1-0.896 2-2 2zM7 25.004h16v-16h-16v16z" fill="#ffffff" data-fill-palette-color="accent"></path><path d="M15 23.004c-0.148 0-0.3-0.016-0.444-0.056-0.588-0.132-1.084-0.528-1.352-1.068l-3.832-7.832c-0.484-0.992-0.076-2.188 0.916-2.676 0.996-0.488 2.188-0.072 2.676 0.916l2.744 5.608 18.392-14.472c0.868-0.68 2.128-0.532 2.808 0.336 0.68 0.872 0.532 2.124-0.336 2.808l-20.336 16c-0.356 0.288-0.792 0.436-1.236 0.436z" fill="#ffffff" data-fill-palette-color="accent"></path><path d="M25 61.004h-20c-1.104 0-2-0.9-2-2v-20c0-1.104 0.896-2 2-2h20c1.104 0 2 0.896 2 2v20c0 1.1-0.896 2-2 2zM7 57.004h16v-16h-16v16z" fill="#ffffff" data-fill-palette-color="accent"></path><path d="M15 55.004c-0.148 0-0.3-0.016-0.444-0.056-0.588-0.132-1.084-0.528-1.352-1.072l-3.832-7.832c-0.484-0.992-0.076-2.188 0.916-2.676 0.996-0.488 2.188-0.076 2.676 0.916l2.744 5.608 18.392-14.472c0.868-0.68 2.128-0.528 2.808 0.336 0.68 0.872 0.532 2.124-0.336 2.808l-20.336 16c-0.356 0.292-0.792 0.44-1.236 0.44z" fill="#ffffff" data-fill-palette-color="accent"></path><path d="M25 93.004h-20c-1.104 0-2-0.9-2-2v-20c0-1.104 0.896-2 2-2h20c1.104 0 2 0.896 2 2v20c0 1.1-0.896 2-2 2zM7 89.004h16v-16h-16v16z" fill="#ffffff" data-fill-palette-color="accent"></path><path d="M91 77.004h-44c-1.104 0-2-0.9-2-2 0-1.104 0.896-2 2-2h44c1.1 0 2 0.896 2 2 0 1.1-0.9 2-2 2z" fill="#ffffff" data-fill-palette-color="accent"></path><path d="M91 89.004h-44c-1.104 0-2-0.9-2-2 0-1.104 0.896-2 2-2h44c1.1 0 2 0.896 2 2 0 1.1-0.9 2-2 2z" fill="#ffffff" data-fill-palette-color="accent"></path><path d="M91 45.004h-44c-1.104 0-2-0.9-2-2 0-1.104 0.896-2 2-2h44c1.1 0 2 0.896 2 2 0 1.1-0.9 2-2 2z" fill="#ffffff" data-fill-palette-color="accent"></path><path d="M91 57.004h-44c-1.104 0-2-0.9-2-2 0-1.104 0.896-2 2-2h44c1.1 0 2 0.896 2 2 0 1.1-0.9 2-2 2z" fill="#ffffff" data-fill-palette-color="accent"></path><path d="M91 13.004h-44c-1.104 0-2-0.9-2-2 0-1.104 0.896-2 2-2h44c1.1 0 2 0.896 2 2 0 1.1-0.9 2-2 2z" fill="#ffffff" data-fill-palette-color="accent"></path><path d="M91 25.004h-44c-1.104 0-2-0.9-2-2 0-1.104 0.896-2 2-2h44c1.1 0 2 0.896 2 2 0 1.1-0.9 2-2 2z" fill="#ffffff" data-fill-palette-color="accent"></path></svg></g></svg></g><g></g></svg></g></svg></g></svg></g><defs></defs></svg><rect width="320" height="360" fill="none" stroke="none" visibility="hidden"></rect></g></svg></g></svg>